#!OML:ASF F:\VICON\USERDATA\INSTALL\rory3\rory3.ASF
:FULLY-SPECIFIED
:DEGREES
1156
root -2.91399 18.5013 -4.81413 -5.63487 -13.3622 5.70922
lowerback 25.5412 6.85893 5.07264
upperback 6.89652 10.19 1.7825
thorax -5.80474 4.88779 -3.86426
lowerneck -19.6817 -0.653941 -4.15472
upperneck -1.72288 0.034036 1.32725
head 2.88933 0.0952995 1.19332
rclavicle -6.83819e-014 -7.95139e-015
rhumerus 46.0438 -25.7333 -83.9121
rradius 135.979
rwrist -68.0438
rhand -15.5065 0.674004
rfingers 7.12502
rthumb 10.6763 -29.0347
lclavicle -6.83819e-014 -7.95139e-015
lhumerus -48.2784 15.9283 45.9383
lradius 45.3527
lwrist 13.8306
lhand -36.0548 12.1288
lfingers 7.12502
lthumb -9.16269 41.9097
rfemur -15.022 13.4837 16.1658
rtibia 35.942
rfoot -14.6019 -11.9675
rtoes -2.14564
lfemur -73.8082 -0.202939 -12.9264
ltibia 111.734
lfoot -1.52202 -2.81586
ltoes -12.3806
1157
root -2.90719 18.5162 -4.83617 -5.70921 -13.4207 6.10716
lowerback 25.9981 7.05104 5.10261
upperback 7.10813 10.445 1.72504
thorax -5.75447 5.01463 -4.05004
lowerneck -19.8723 -0.79529 -4.17238
upperneck -2.00222 -0.136257 1.31613
head 2.83026 0.0151314 1.17732
rclavicle -1.98785e-014 -3.18055e-014
rhumerus 46.056 -25.4194 -84.5545
rradius 136.907
rwrist -68.6012
rhand -15.466 1.40427
rfingers 7.12502
rthumb 10.7153 -28.3025
lclavicle -1.98785e-014 -3.18055e-014
lhumerus -48.6211 16.6512 45.3513
lradius 45.2897
lwrist 14.0801
lhand -35.7941 12.0742
lfingers 7.12502
lthumb -8.91107 41.866
rfemur -15.0998 13.3815 15.7035
rtibia 35.8577
rfoot -14.4546 -11.8072
rtoes -2.01857
lfemur -75.5681 -0.780907 -13.4933
ltibia 112.607
lfoot -1.60058 -3.01925
ltoes -11.9979
1158
root -2.8966 18.5234 -4.85293 -5.80219 -13.5389 5.87298
lowerback 26.5896 7.13543 5.76103
upperback 7.29147 10.7459 1.86308
thorax -5.71663 5.15766 -4.39503
lowerneck -19.9764 -0.952929 -4.31066
upperneck -2.23815 -0.306601 1.34468
head 2.77193 -0.063732 1.19633
rclavicle -2.46493e-014 -1.59028e-014
rhumerus 45.819 -25.0384 -84.9979
rradius 137.838
rwrist -69.3319
rhand -15.2634 2.20096
rfingers 7.12502
rthumb 10.9107 -27.4956
lclavicle -2.46493e-014 -1.59028e-014
lhumerus -49.0761 17.3064 44.7288
lradius 45.1929
lwrist 14.1884
lhand -35.5143 12.2086
lfingers 7.12502
lthumb -8.64114 42.0118
rfemur -14.9383 13.3245 15.9859
rtibia 35.7359
rfoot -14.3466 -11.7307
rtoes -1.85449
lfemur -77.2325 -1.11298 -13.4449
ltibia 113.564
lfoot -1.66241 -3.41145
ltoes -12.2959
1159
root -2.89292 18.5278 -4.86699 -5.799 -13.6399 5.75142
lowerback 27.0697 7.2699 6.13948
upperback 7.38708 11.046 2.01612
thorax -5.77222 5.29473 -4.56986
lowerneck -19.9711 -1.06729 -4.42535
upperneck -2.3842 -0.428276 1.31156
head 2.72346 -0.12272 1.19451
rclavicle 4.21423e-014 1.43125e-014
rhumerus 45.5172 -24.5631 -85.2885
rradius 138.627
rwrist -70.1364
rhand -14.934 2.72775
rfingers 7.12502
rthumb 11.2284 -26.9518
lclavicle 4.21423e-014 1.43125e-014
lhumerus -49.6579 17.9234 44.0608
lradius 45.0738
lwrist 14.3018
lhand -35.7403 12.7079
lfingers 7.12502
lthumb -8.85924 42.5019
rfemur -14.9005 13.3706 16.1372
rtibia 35.5992
rfoot -14.2796 -11.7191
rtoes -1.66374
lfemur -78.9892 -1.36881 -13.5519
ltibia 114.455
lfoot -1.7474 -3.76221
ltoes -13.0755
1160
root -2.89401 18.5334 -4.88208 -5.71066 -13.6618 5.91113
lowerback 27.3884 7.44081 6.19522
upperback 7.47846 11.2933 2.06937
thorax -5.79836 5.4111 -4.64548
lowerneck -19.8585 -1.11427 -4.48162
upperneck -2.66274 -0.480125 1.29705
head 2.6063 -0.144621 1.19287
rclavicle -6.20208e-014 1.43125e-014
rhumerus 45.3998 -24.0691 -85.5686
rradius 139.468
rwrist -71.1012
rhand -14.8101 3.2023
rfingers 7.12502
rthumb 11.3479 -26.4707
lclavicle -6.20208e-014 1.43125e-014
lhumerus -50.2228 18.7342 43.236
lradius 44.9526
lwrist 14.4219
lhand -35.7297 12.6945
lfingers 7.12502
lthumb -8.84898 42.489
rfemur -15.06 13.4627 15.9484
rtibia 35.4804
rfoot -14.26 -11.8217
rtoes -1.01644
lfemur -80.8336 -1.74142 -13.9666
ltibia 115.235
lfoot -1.79729 -4.04026
ltoes -13.1531
1161
root -2.89477 18.5433 -4.89753 -5.64166 -13.637 6.04752
lowerback 27.7155 7.60018 6.3275
upperback 7.63841 11.5407 2.11962
thorax -5.7342 5.53425 -4.75894
lowerneck -20.0069 -1.20917 -4.5469
upperneck -2.89205 -0.579162 1.27743
head 2.55553 -0.189736 1.18901
rclavicle 5.96354e-014 -1.43125e-014
rhumerus 45.2905 -23.665 -85.7541
rradius 140.474
rwrist -72.2353
rhand -14.6373 3.83235
rfingers 7.12502
rthumb 11.5146 -25.8314
lclavicle 5.96354e-014 -1.43125e-014
lhumerus -50.6179 19.5228 42.5031
lradius 44.8967
lwrist 14.5133
lhand -35.2822 12.6039
lfingers 7.12502
lthumb -8.41709 42.4161
rfemur -15.1763 13.5462 15.7888
rtibia 35.395
rfoot -14.3994 -11.9452
rtoes 0.525992
lfemur -82.5855 -2.17755 -14.3863
ltibia 115.924
lfoot -1.77919 -4.37023
ltoes -12.7878
1162
root -2.90068 18.564 -4.90908 -5.60382 -13.5403 6.70022
lowerback 27.9397 7.87302 5.85331
upperback 7.76946 11.7605 2.08304
thorax -5.75917 5.64158 -4.63048
lowerneck -20.1521 -1.27478 -4.69574
upperneck -3.09785 -0.623297 1.33333
head 2.51239 -0.203874 1.23036
rclavicle 3.73715e-014 2.22639e-014
rhumerus 45.0019 -23.3042 -85.809
rradius 141.345
rwrist -73.1395
rhand -14.0347 4.13794
rfingers 7.12502
rthumb 12.0957 -25.4924
lclavicle 3.73715e-014 2.22639e-014
lhumerus -51.0775 19.9498 41.8943
lradius 44.9894
lwrist 14.9051
lhand -34.7275 12.7585
lfingers 7.12502
lthumb -7.88176 42.5916
rfemur -15.3567 13.5859 15.0344
rtibia 35.291
rfoot -14.4722 -12.0248
rtoes 1.39025
lfemur -84.1893 -2.84783 -15.3661
ltibia 116.405
lfoot -1.79443 -4.43808
ltoes -12.5924
1163
root -2.90536 18.5849 -4.91757 -5.62728 -13.4972 7.44168
lowerback 28.2874 8.15652 5.25464
upperback 7.82805 11.968 2.03576
thorax -5.95087 5.73086 -4.47423
lowerneck -20.0822 -1.25336 -4.81707
upperneck -3.41413 -0.568759 1.34788
head 2.3878 -0.169686 1.25919
rclavicle 3.65764e-014 -1.59028e-014
rhumerus 44.558 -22.8362 -85.7166
rradius 142.067
rwrist -73.8339
rhand -13.2589 4.52649
rfingers 7.12502
rthumb 12.8437 -25.0584
lclavicle 3.65764e-014 -1.59028e-014
lhumerus -51.6786 20.4766 41.1025
lradius 44.9798
lwrist 15.3558
lhand -34.3406 12.8555
lfingers 7.12502
lthumb -7.50834 42.7023
rfemur -15.4936 13.6573 14.1985
rtibia 35.1766
rfoot -14.2384 -12.1281
rtoes 0.385343
lfemur -85.644 -3.51957 -16.4413
ltibia 116.834
lfoot -1.91032 -4.43311
ltoes -12.1513
